<svg width="114" height="48" viewBox="0 0 114 48" fill="none" xmlns="http://www.w3.org/2000/svg">
<g clip-path="url(#clip0_180009_15581)">
<path d="M16.4625 25.765V23.5382C17.976 23.4975 19.44 23.2378 20.8811 22.7757C19.3846 22.3327 17.8789 21.9345 16.4492 21.2966V18.8925C16.6288 18.9439 16.7828 18.9804 16.9317 19.0318C19.1266 19.786 21.3416 20.4721 23.5984 21.0128C23.9988 21.1086 24.4021 21.1938 24.8062 21.2707C24.9194 21.292 25.0573 21.3003 25.1577 21.2549C25.9623 20.8915 26.7605 20.5142 27.556 20.0925C23.7826 19.2652 20.0343 18.4129 16.4616 16.8717V14.375C16.6036 14.4176 16.7324 14.4477 16.8557 14.494C20.1457 15.7365 23.5058 16.7425 26.9232 17.5569C27.8845 17.786 28.8688 17.9337 29.8104 18.2254C30.4419 18.4207 30.8918 18.2633 31.4069 17.9231C32.8997 16.9365 34.5553 16.3018 36.258 15.793C38.2687 15.1921 40.3229 14.8236 42.4133 14.6616C43.2308 14.5981 44.05 14.5565 44.9005 14.5028V16.6615C44.7388 16.6736 44.577 16.6861 44.4152 16.6972C40.453 16.9703 36.6241 17.7953 33.0445 19.5878C32.1309 20.0452 31.2708 20.6119 30.3905 21.1355C27.9528 22.5845 25.4363 23.8651 22.7566 24.7988C21.2078 25.3386 19.6288 25.7363 17.9875 25.8414C17.9522 25.8437 17.9164 25.8465 17.8812 25.8488C17.4266 25.8271 16.972 25.8058 16.5175 25.784C16.5047 25.7632 16.4863 25.7562 16.463 25.7641L16.4625 25.765Z" fill="#F8971F"/>
<path d="M16.4438 30.0316V27.9154C17.0331 27.8904 17.5926 27.8798 18.1507 27.8414C19.9749 27.7145 21.7289 27.2539 23.4523 26.6659C26.1952 25.7298 28.7727 24.4368 31.2668 22.9618C34.4697 21.0679 37.889 19.7522 41.5579 19.149C42.561 18.9842 43.5851 18.9485 44.6 18.8559C44.6889 18.8476 44.7792 18.855 44.9345 18.855C44.9368 19.2291 44.9396 19.5763 44.941 19.924C44.9419 20.2601 44.941 20.5962 44.941 20.9304C44.8644 20.9549 44.8232 20.9799 44.7824 20.9795C42.8405 20.9642 40.9696 21.366 39.1298 21.954C36.7485 22.7146 34.5105 23.797 32.3367 25.028C29.1219 26.8483 25.7865 28.3941 22.2348 29.4256C20.884 29.8182 19.513 30.1126 18.1021 30.1742C18.0591 30.1802 18.016 30.1867 17.9729 30.1927C17.4872 30.1719 17.001 30.151 16.5153 30.1302C16.492 30.0973 16.4686 30.0645 16.4448 30.0316H16.4438Z" fill="#F8971F"/>
<path d="M44.8966 25.4678C44.2519 25.528 43.6287 25.5622 43.0124 25.6474C41.2927 25.8854 39.6573 26.4303 38.0613 27.0997C35.5865 28.1372 33.2565 29.4478 31.0277 30.9464C30.9264 31.0144 30.8233 31.0792 30.6826 31.17C29.8831 30.7269 29.0715 30.2769 28.2271 29.8094C28.2926 29.7367 28.3301 29.6728 28.3856 29.6367C31.5079 27.5974 34.7503 25.7946 38.2621 24.5248C39.7875 23.9729 41.3431 23.5303 42.9542 23.3248C43.5852 23.2442 44.2216 23.1493 44.8961 23.2354V25.4678H44.8966Z" fill="#F8971F"/>
<path d="M44.8198 30.1982C44.0706 30.0686 43.327 30.1695 42.5883 30.276C40.223 30.6167 38.073 31.5352 36.0564 32.8019C35.8919 32.9051 35.7237 33.0033 35.5093 33.1329V30.607C38.3745 28.8478 41.3891 27.5525 44.9234 27.8511C44.9234 28.6427 44.9234 29.3936 44.9234 30.1445C44.889 30.1621 44.8547 30.1802 44.8198 30.1978V30.1982Z" fill="#F8971F"/>
<path d="M17.7046 34.4792H16.4536C16.4536 33.7556 16.4536 33.056 16.4536 32.357C16.4751 32.3338 16.4967 32.3102 16.5187 32.2871C17.5822 32.2195 18.6476 32.1737 19.7083 32.0788C21.1 31.9547 22.4847 31.776 23.8232 31.3399C24.4147 31.1473 25.0072 30.9556 25.5992 30.764C25.6689 30.7413 25.7385 30.72 25.8375 30.6885V33.1783C24.1471 33.719 22.4183 34.0477 20.6582 34.2273C20.6179 34.2361 20.5776 34.2449 20.5373 34.2537C19.6543 34.3278 18.7717 34.4014 17.8888 34.4755C17.8274 34.4768 17.7664 34.4782 17.705 34.4796L17.7046 34.4792Z" fill="#F8971F"/>
<path d="M37.9477 34.3866C39.3251 33.4685 40.8125 32.8153 42.4364 32.494C43.2456 32.3339 44.0613 32.2723 44.9122 32.3371V34.044C44.3435 34.0954 43.7992 34.1394 43.2562 34.1954C43.0289 34.219 42.7957 34.2412 42.5808 34.312C41.9883 34.5074 41.3821 34.5028 40.7717 34.4977C39.825 34.4894 38.8788 34.4907 37.9321 34.488C37.9376 34.4542 37.9427 34.4204 37.9482 34.3861L37.9477 34.3866Z" fill="#F8971F"/>
<path d="M37.9477 34.3866C37.9426 34.4204 37.9371 34.4542 37.9316 34.4884C37.9367 34.4546 37.9422 34.4208 37.9477 34.3866Z" fill="#FBDFBF"/>
<path d="M16.4629 25.765C16.4863 25.7572 16.5041 25.7641 16.5174 25.7849C16.4991 25.7785 16.4812 25.7715 16.4629 25.765Z" fill="#FCBB6D"/>
<path d="M17.9722 30.1927C18.0152 30.1867 18.0583 30.1802 18.1014 30.1742C18.0583 30.1806 18.0152 30.1867 17.9722 30.1927Z" fill="#FCBB6D"/>
<path d="M16.4438 30.0316C16.4672 30.0645 16.4906 30.0973 16.5144 30.1302C16.491 30.0973 16.4677 30.0645 16.4438 30.0316Z" fill="#FCBB6D"/>
<path d="M16.5182 32.2871C16.4967 32.3102 16.4751 32.3338 16.4531 32.357C16.4747 32.3338 16.4962 32.3102 16.5182 32.2871Z" fill="#FAAE56"/>
</g>
<path d="M57.3084 19.6371C56.249 21.0919 55.1896 22.5488 54.079 24.0754C52.9684 22.5878 51.9274 21.1042 50.8455 19.6391C50.6775 19.7457 50.7451 19.8952 50.7451 20.0161C50.739 21.9976 50.741 23.9812 50.741 25.9626C50.741 26.0835 50.7369 26.2065 50.741 26.3274C50.7471 26.4954 50.6857 26.5856 50.5033 26.5835C49.8947 26.5794 49.2861 26.5815 48.6776 26.5835C48.53 26.5835 48.4521 26.522 48.4521 26.3684C48.4521 26.2475 48.4521 26.1245 48.4521 26.0036C48.4521 22.4382 48.4521 18.8748 48.4521 15.3093C48.4521 14.6885 48.4522 14.6926 49.0505 14.7725C49.6775 14.8565 50.1754 15.1024 50.5627 15.6556C51.5832 17.1044 52.6569 18.5182 53.7081 19.9444C53.8106 20.0838 53.9192 20.219 54.0216 20.3522C54.2286 20.3399 54.2757 20.1637 54.3618 20.0469C55.4826 18.5408 56.6096 17.0388 57.71 15.5184C58.1649 14.8893 58.8124 14.793 59.4968 14.7376C59.6177 14.7274 59.6956 14.7909 59.6997 14.918C59.7038 15.0389 59.7017 15.1618 59.7017 15.2827C59.7017 18.8645 59.7017 22.4464 59.7017 26.0282C59.7017 26.0794 59.7017 26.1327 59.7017 26.1839C59.6935 26.5753 59.6935 26.5794 59.294 26.5835C58.8063 26.5876 58.3206 26.5876 57.833 26.5835C57.417 26.5794 57.4108 26.5774 57.4108 26.1471C57.4088 24.1656 57.4108 22.182 57.4108 20.2006C57.4108 20.0284 57.4108 19.8563 57.4108 19.6842C57.376 19.6678 57.3412 19.6534 57.3063 19.6371H57.3084Z" fill="#FFFBF0"/>
<path d="M73.7568 20.6432C73.7568 18.8358 73.7568 17.0285 73.7568 15.2192C73.7568 14.7376 73.7609 14.7274 74.2384 14.7335C75.976 14.7581 77.7157 14.6454 79.4513 14.7991C80.9533 14.9323 82.2873 15.4856 83.3302 16.6044C84.5126 17.8707 84.8179 19.4321 84.7318 21.1001C84.7093 21.5489 84.6212 21.9956 84.5003 22.432C83.8794 24.6799 82.0946 26.2147 79.7832 26.4913C79.2464 26.5548 78.7116 26.5856 78.1706 26.5835C76.8489 26.5774 75.5273 26.5835 74.2076 26.5815C73.763 26.5815 73.7589 26.5774 73.7589 26.1184C73.7589 24.2926 73.7589 22.4689 73.7589 20.6432H73.7568ZM76.0375 20.6493C76.0375 21.848 76.0354 23.0468 76.0375 24.2455C76.0375 24.641 76.0457 24.6471 76.4453 24.6492C77.1235 24.6533 77.7997 24.6533 78.478 24.6492C79.1111 24.6451 79.7238 24.5242 80.2894 24.2332C81.775 23.4668 82.402 22.1964 82.402 20.5694C82.402 18.5715 81.1459 17.1003 79.1747 16.7662C78.2587 16.6105 77.3366 16.7089 76.4186 16.6843C76.0498 16.6761 76.0416 16.6904 76.0395 17.0531C76.0354 18.2519 76.0395 19.4506 76.0395 20.6493H76.0375Z" fill="#FFFBF0"/>
<path d="M64.7017 18.8768C64.9087 18.7846 65.005 18.6371 65.1218 18.5141C66.2304 17.3605 67.341 16.2089 68.4393 15.045C68.6463 14.8258 68.8532 14.7192 69.1606 14.7274C69.9372 14.7479 70.7138 14.7335 71.6175 14.7335C69.6831 16.7826 67.8307 18.7457 65.9496 20.7374C67.9619 22.6656 69.9474 24.5713 71.9351 26.479C71.9228 26.5138 71.9105 26.5487 71.8982 26.5815C71.4043 26.5815 70.9085 26.5876 70.4146 26.5815C69.9638 26.5753 69.4679 26.7085 69.0725 26.5282C68.6975 26.3581 68.4209 25.9667 68.1053 25.6676C67.1217 24.7352 66.1402 23.7967 65.1525 22.8664C65.0193 22.7414 64.9066 22.5796 64.712 22.5099C64.5993 22.6882 64.6464 22.8644 64.6464 23.0283C64.6423 24.0898 64.6464 25.1512 64.6423 26.2106C64.6423 26.5733 64.6341 26.5774 64.2694 26.5794C63.7468 26.5835 63.2243 26.5671 62.7038 26.5856C62.4231 26.5958 62.3248 26.4852 62.3555 26.2229C62.3637 26.1532 62.3555 26.0835 62.3555 26.0139C62.3555 22.4484 62.3555 18.883 62.3555 15.3175C62.3555 14.7008 62.2776 14.7315 62.9477 14.7335C63.3657 14.7335 63.7817 14.7335 64.1997 14.7335C64.6382 14.7356 64.6403 14.7376 64.6403 15.1966C64.6403 16.2581 64.6403 17.3195 64.6423 18.3789C64.6423 18.5326 64.6116 18.6924 64.6956 18.8748L64.7017 18.8768Z" fill="#FFFBF0"/>
<path d="M97.1882 23.643C97.4116 24.2352 97.6022 24.7741 97.8173 25.3028C97.9116 25.5364 97.8358 25.6409 97.6268 25.7434C96.5059 26.2946 95.3297 26.6163 94.0818 26.7249C92.9712 26.8212 91.8913 26.7331 90.8442 26.352C88.3894 25.4565 86.8587 23.2619 86.8628 20.6718C86.8669 18.1228 88.4345 15.9159 90.8749 14.9979C92.3667 14.4364 93.8769 14.504 95.3953 14.836C96.1452 14.9999 96.8563 15.2765 97.5632 15.5696C97.803 15.67 97.8296 15.7786 97.7149 15.9978C97.4874 16.4281 97.2845 16.8708 97.0673 17.3072C96.9034 17.6371 96.8973 17.6392 96.5776 17.4916C96.0407 17.2437 95.4957 17.0162 94.926 16.8544C93.9773 16.5818 93.0183 16.4589 92.047 16.7396C90.3114 17.2416 89.2049 18.8092 89.2254 20.7313C89.25 23.1123 90.9159 24.7393 93.3031 24.7332C94.4424 24.7311 95.4916 24.3869 96.5202 23.9463C96.7251 23.8582 96.928 23.7619 97.1841 23.643H97.1882Z" fill="#FFFBF0"/>
<path d="M49.7331 31.9235C50.0364 31.5178 50.2864 31.1838 50.5323 30.8477C50.6224 30.7248 50.731 30.6449 50.8847 30.6879C51.0466 30.733 51.0036 30.8805 51.0036 30.9932C51.0077 31.6878 51.0036 32.3845 51.0056 33.0792C51.0056 33.2513 50.9913 33.3763 50.7597 33.3825C50.5118 33.3886 50.4667 33.2739 50.4729 33.0669C50.4811 32.7124 50.4749 32.3559 50.4749 31.9194C50.0999 32.1612 50.0016 32.5013 49.7413 32.7267C49.5426 32.6161 49.4668 32.3927 49.3172 32.235C49.2577 32.1714 49.2024 32.1059 49.0979 32.1427C48.9975 32.1796 48.9832 32.2657 48.9832 32.3518C48.9791 32.6796 48.9832 33.0075 48.9832 33.3312C48.4606 33.3907 48.4565 33.3907 48.4524 32.9747C48.4483 32.3149 48.4483 31.653 48.4524 30.9932C48.4524 30.8846 48.3971 30.733 48.5672 30.6899C48.7168 30.651 48.8295 30.7104 48.9237 30.8395C49.1758 31.1899 49.4381 31.5321 49.7311 31.9255L49.7331 31.9235Z" fill="#FFFBF0"/>
<path d="M59.7758 31.8026C59.7758 32.2309 59.7717 32.6591 59.7758 33.0894C59.7779 33.2677 59.7512 33.3825 59.5279 33.3865C59.2861 33.3927 59.2369 33.2861 59.241 33.073C59.2492 32.3968 59.241 31.7206 59.2471 31.0424C59.2471 30.9153 59.1857 30.7412 59.3701 30.6879C59.5279 30.6428 59.6693 30.6961 59.7861 30.8313C60.1262 31.2247 60.4766 31.61 60.8229 31.9993C60.9131 32.0997 60.9991 32.2042 61.0729 32.2923C61.2717 32.1981 61.2225 32.0608 61.2266 31.9501C61.2348 31.6202 61.2327 31.2903 61.2266 30.9604C61.2225 30.7739 61.2737 30.6735 61.4889 30.6735C61.6958 30.6735 61.7614 30.7575 61.7593 30.9522C61.7532 31.6633 61.7593 32.3743 61.7552 33.0853C61.7552 33.1837 61.7942 33.3107 61.6671 33.3579C61.5339 33.407 61.3926 33.405 61.284 33.2841C61.1897 33.1816 61.0995 33.0771 61.0053 32.9747C60.6385 32.5669 60.2717 32.1591 59.9049 31.7514C59.8619 31.7678 59.8168 31.7862 59.7738 31.8026H59.7758Z" fill="#FFFBF0"/>
<path d="M87.1828 32.2882C87.1828 31.8558 87.1869 31.4255 87.1807 30.9932C87.1766 30.7924 87.2074 30.6694 87.4594 30.6694C87.734 30.6694 87.7114 30.8374 87.7114 31.0137C87.7114 31.7083 87.7114 32.403 87.7094 33.0976C87.7094 33.1939 87.7504 33.3271 87.6151 33.3599C87.5024 33.3886 87.3713 33.405 87.2709 33.3066C87.1848 33.2205 87.1029 33.1304 87.0229 33.0402C86.6971 32.6796 86.3754 32.3148 86.0476 31.9562C85.9943 31.8989 85.9472 31.8067 85.8365 31.8456C85.73 31.8825 85.7341 31.9767 85.7341 32.0587C85.7279 32.4071 85.7238 32.7533 85.732 33.1017C85.7361 33.2923 85.6869 33.3886 85.4718 33.3804C85.2853 33.3722 85.1869 33.3332 85.191 33.116C85.2013 32.3866 85.191 31.6571 85.1972 30.9276C85.1992 30.7022 85.3837 30.5915 85.5783 30.7042C85.6951 30.7719 85.7832 30.8887 85.8754 30.9911C86.2791 31.4378 86.6807 31.8866 87.0844 32.3353C87.1192 32.3189 87.1541 32.3025 87.1869 32.2862L87.1828 32.2882Z" fill="#FFFBF0"/>
<path d="M63.8001 32.2739C63.908 31.9528 64.214 31.8203 64.7181 31.8763C64.7816 32.2329 64.7324 32.5976 64.7509 32.9603C64.7591 33.1017 64.7017 33.1919 64.5746 33.2431C64.1095 33.4296 63.6321 33.489 63.1526 33.3169C62.5624 33.1058 62.1977 32.5382 62.2448 31.9399C62.296 31.3087 62.7468 30.7985 63.3841 30.6858C63.7652 30.6182 64.1443 30.6592 64.5111 30.8026C64.6873 30.8723 64.7468 30.9563 64.6648 31.1551C64.589 31.3395 64.4927 31.3477 64.3472 31.276C64.1566 31.1817 63.9497 31.1407 63.7427 31.1346C63.3636 31.1223 63.0685 31.2842 62.8964 31.6305C62.7366 31.9501 62.8022 32.403 63.0317 32.6571C63.2612 32.9132 63.7202 33.03 64.0398 32.9255C64.2078 32.8702 64.2283 32.7513 64.2242 32.6017C64.2201 32.4685 64.2017 32.3599 64.0337 32.3558C63.9497 32.3538 63.8554 32.3743 63.8021 32.2759L63.8001 32.2739Z" fill="#FFFBF0"/>
<path d="M66.5893 32.0239C66.5893 31.6776 66.6036 31.3313 66.5852 30.985C66.5708 30.7248 66.6774 30.6551 66.9171 30.6735C67.2962 30.7022 67.6774 30.6387 68.0544 30.7289C68.7388 30.8907 69.1199 31.3887 69.0851 32.0833C69.0503 32.778 68.6199 33.2616 67.9478 33.362C67.9314 33.364 67.913 33.3681 67.8966 33.3681C67.4827 33.3722 67.0688 33.407 66.6549 33.3517C66.5176 32.9849 66.6241 32.6058 66.5913 32.2329C66.5852 32.1632 66.5913 32.0936 66.5913 32.0259L66.5893 32.0239ZM67.6015 31.153C67.1282 31.1407 67.1261 31.1407 67.1241 31.5915C67.122 31.9542 67.122 32.319 67.1241 32.6817C67.1241 32.7821 67.1138 32.9091 67.2532 32.9234C67.6405 32.9603 68.0277 32.9542 68.3105 32.6366C68.5646 32.3517 68.5974 32.0034 68.4622 31.6633C68.3105 31.278 67.9806 31.1448 67.5995 31.153H67.6015Z" fill="#FFFBF0"/>
<path d="M57.3638 30.6613C58.1547 30.6776 58.7715 31.2842 58.7715 32.0424C58.7715 32.8415 58.1117 33.4357 57.251 33.4071C56.4498 33.3825 55.8536 32.7759 55.872 32.0075C55.8904 31.2268 56.5359 30.6449 57.3638 30.6613ZM57.3351 31.1244C56.8556 31.1162 56.4355 31.5157 56.413 32.0014C56.3884 32.4993 56.8105 32.946 57.3105 32.9542C57.8125 32.9604 58.2408 32.53 58.2346 32.026C58.2285 31.5444 57.8187 31.1346 57.3351 31.1264V31.1244Z" fill="#FFFBF0"/>
<path d="M92.961 33.3251C92.5307 33.4726 92.2889 33.321 92.1086 32.9849C91.9857 32.7575 91.8176 32.5525 91.6742 32.3353C91.6045 32.2329 91.5062 32.2226 91.3996 32.2431C91.2562 32.2698 91.2726 32.3866 91.2705 32.487C91.2664 32.696 91.2603 32.905 91.2705 33.1119C91.2808 33.3107 91.2091 33.3865 91 33.3804C90.789 33.3742 90.7378 33.2841 90.7398 33.0935C90.746 32.3804 90.746 31.6673 90.7398 30.9542C90.7398 30.7596 90.8033 30.6612 91.0082 30.6735C91.3033 30.6899 91.5984 30.6428 91.8914 30.7186C92.4959 30.8764 92.7192 31.446 92.3135 31.9112C92.1332 32.1181 92.1885 32.2206 92.3074 32.3866C92.5266 32.6919 92.7377 33.0033 92.961 33.323V33.3251ZM91.5656 31.1407C91.3832 31.11 91.2439 31.1489 91.2705 31.3723C91.289 31.5218 91.1681 31.7431 91.4447 31.7841C91.7008 31.821 91.9611 31.6612 91.959 31.4645C91.9549 31.2124 91.7603 31.1694 91.5656 31.1387V31.1407Z" fill="#FFFBF0"/>
<path d="M71.2589 30.6776C71.2466 31.0649 71.0704 31.1919 70.7507 31.1551C70.6646 31.1448 70.5765 31.151 70.4905 31.1551C70.1667 31.1653 70.0171 31.4092 70.1503 31.6981C70.1974 31.8005 70.2815 31.7944 70.3655 31.7964C70.5396 31.8005 70.7138 31.8087 70.8859 31.7964C71.0745 31.7841 71.1236 31.8723 71.1216 32.0444C71.1216 32.2145 71.0335 32.239 70.8921 32.2411C70.6523 32.2452 70.4085 32.2022 70.1585 32.2821C70.1483 32.3845 70.1421 32.489 70.1278 32.5894C70.0868 32.8722 70.2241 32.9624 70.4864 32.9378C70.6073 32.9255 70.7302 32.9501 70.8511 32.9337C71.1421 32.8948 71.265 33.0382 71.2896 33.3783C70.7753 33.3783 70.263 33.3783 69.7507 33.3783C69.6114 33.3783 69.5807 33.2861 69.5807 33.1714C69.5807 32.4255 69.5827 31.6776 69.5786 30.9317C69.5786 30.7166 69.6913 30.6756 69.8737 30.6776C70.3245 30.6838 70.7753 30.6797 71.2568 30.6797L71.2589 30.6776Z" fill="#FFFBF0"/>
<path d="M54.1594 30.692C54.2639 30.9624 54.1451 31.2329 54.2578 31.5034C54.5098 31.4296 54.6389 31.2124 54.7864 31.0403C55.0344 30.7514 55.3069 30.5936 55.7188 30.7084C55.6368 30.9768 55.3848 31.1141 55.2208 31.319C55.0159 31.5731 54.6102 31.7575 54.6266 32.0649C54.641 32.3333 55.0323 32.5054 55.2454 32.7308C55.434 32.9296 55.6204 33.1324 55.813 33.3394C55.4422 33.448 55.1348 33.3619 54.8705 33.0587C54.7147 32.8804 54.5221 32.7349 54.3213 32.5505C54.143 32.7616 54.2127 32.9747 54.2065 33.1632C54.2004 33.364 54.0897 33.3783 53.9361 33.3763C53.7803 33.3763 53.6656 33.3558 53.6676 33.157C53.6717 32.4112 53.6615 31.6653 53.6738 30.9194C53.6799 30.5198 53.975 30.7186 54.1574 30.6879L54.1594 30.692Z" fill="#FFFBF0"/>
<path d="M75.9185 33.3435C76.3057 32.5034 76.6746 31.7022 77.0414 30.901C77.0926 30.7883 77.1418 30.6838 77.2934 30.6776C77.445 30.6715 77.5065 30.7657 77.5598 30.8805C77.9389 31.694 78.3159 32.5095 78.6991 33.3333C78.1602 33.3968 78.1643 33.3947 77.9614 32.9808C77.8876 32.8312 77.8713 32.612 77.6643 32.5894C77.4102 32.5628 77.1418 32.5259 76.8938 32.614C76.734 32.6694 76.7197 32.862 76.652 32.9993C76.4615 33.3824 76.4656 33.3845 75.9185 33.3456V33.3435ZM77.1028 32.1099C77.2524 32.1263 77.3938 32.153 77.5475 32.0833C77.4676 31.9071 77.4266 31.7575 77.3098 31.6428C77.1991 31.7739 77.1172 31.9194 77.1049 32.1099H77.1028Z" fill="#FFFBF0"/>
<path d="M93.2501 33.3435C93.6353 32.5054 94.0042 31.7042 94.371 30.903C94.4222 30.7903 94.4693 30.6858 94.6209 30.6776C94.7726 30.6694 94.8361 30.7616 94.8894 30.8764C95.2685 31.6919 95.6475 32.5054 96.0307 33.3292C95.4939 33.3968 95.498 33.3947 95.2931 32.9829C95.2193 32.8333 95.2029 32.612 94.998 32.5874C94.7439 32.5567 94.4755 32.5239 94.2275 32.6099C94.0677 32.6653 94.0492 32.8558 93.9816 32.9931C93.7911 33.3784 93.7952 33.3804 93.248 33.3435H93.2501ZM94.6455 31.6264C94.5144 31.7923 94.4488 31.9337 94.4222 32.1018C94.5964 32.1284 94.7295 32.1612 94.8648 32.069C94.832 31.9891 94.8054 31.9091 94.7685 31.8313C94.7398 31.7698 94.6988 31.7145 94.6455 31.6264Z" fill="#FFFBF0"/>
<path d="M53.2556 30.6776C53.2474 31.0711 53.065 31.1899 52.7494 31.1551C52.6634 31.1448 52.5753 31.1551 52.4892 31.1551C52.1306 31.1407 52.1019 31.1797 52.1224 31.5915C52.1306 31.7473 52.2228 31.7964 52.3622 31.7964C52.5363 31.7964 52.7085 31.8046 52.8826 31.7964C53.0589 31.7882 53.1306 31.8559 53.1265 32.0382C53.1224 32.2063 53.0363 32.2411 52.897 32.239C52.7761 32.237 52.6531 32.237 52.5322 32.239C52.1327 32.2472 52.0814 32.3128 52.1163 32.6878C52.1327 32.864 52.2126 32.9316 52.3785 32.9316C52.5343 32.9316 52.69 32.9316 52.8478 32.9357C53.0787 32.9412 53.2201 33.0881 53.272 33.3763C52.7822 33.3763 52.2986 33.3722 51.815 33.3763C51.6265 33.3783 51.5835 33.28 51.5835 33.1161C51.5876 32.3866 51.5896 31.6591 51.5835 30.9297C51.5835 30.7145 51.6901 30.6715 51.8745 30.6735C52.3232 30.6797 52.774 30.6756 53.2576 30.6756L53.2556 30.6776Z" fill="#FFFBF0"/>
<path d="M83.1128 30.7002H84.7603C84.7398 31.0075 84.6312 31.1838 84.3115 31.153C84.207 31.1428 84.1025 31.1571 83.998 31.151C83.6292 31.1325 83.621 31.1674 83.6271 31.5854C83.6292 31.7411 83.7029 31.7985 83.8505 31.7964C84.041 31.7944 84.2337 31.8005 84.4242 31.7964C84.5923 31.7964 84.6209 31.8989 84.6209 32.0362C84.6209 32.1591 84.5738 32.2329 84.4406 32.2329C84.25 32.2329 84.0574 32.2431 83.8669 32.2329C83.5841 32.2186 83.6312 32.4194 83.6271 32.5874C83.623 32.7657 83.6107 32.948 83.8792 32.9337C84.0533 32.9255 84.2275 32.9275 84.4017 32.9337C84.6681 32.9439 84.6681 32.946 84.7726 33.3415C84.2214 33.407 83.6783 33.3599 83.1128 33.3743V30.6981V30.7002Z" fill="#FFFBF0"/>
<path d="M81.693 33.3947C80.7975 33.3947 80.1889 32.8353 80.1807 32.0403C80.1725 31.235 80.8119 30.6448 81.6766 30.6489C81.9245 30.6489 82.1643 30.6879 82.3897 30.778C82.4983 30.8211 82.6929 30.819 82.6089 31.0383C82.5434 31.2104 82.4819 31.3723 82.2401 31.2555C82.1151 31.1961 81.9799 31.1592 81.8446 31.1305C81.4717 31.0485 81.1541 31.153 80.9184 31.4583C80.6766 31.7739 80.6582 32.2063 80.8754 32.5341C81.0905 32.8579 81.4102 32.9726 81.779 32.9255C81.9655 32.903 82.1479 32.8271 82.3282 32.7657C82.4655 32.7185 82.5495 32.7329 82.6069 32.8886C82.6602 33.0362 82.6929 33.1468 82.5147 33.2247C82.238 33.3435 81.9532 33.405 81.693 33.3927V33.3947Z" fill="#FFFBF0"/>
<path d="M89.4653 33.3517C88.9428 33.3886 88.9407 33.3886 88.9387 32.9726C88.9387 32.4706 88.9305 31.9665 88.9407 31.4645C88.9448 31.2473 88.8752 31.151 88.6498 31.151C88.4449 31.151 88.2359 31.1919 88.0166 31.112C88.0309 30.8395 88.1047 30.6633 88.4367 30.6735C89.0924 30.6899 89.7481 30.6776 90.41 30.6776C90.3635 30.9877 90.2132 31.1462 89.9591 31.153C89.8895 31.153 89.8198 31.1612 89.7522 31.153C89.5206 31.1284 89.4571 31.2391 89.4612 31.4563C89.4715 31.9768 89.4653 32.4972 89.4653 33.0156C89.4653 33.1181 89.4653 33.2226 89.4653 33.3517Z" fill="#FFFBF0"/>
<path d="M74.9657 33.323C74.771 33.4111 74.6194 33.3927 74.4186 33.3517C74.4186 32.7923 74.4227 32.2247 74.4186 31.6571C74.4145 31.1878 74.5251 31.151 73.9084 31.153C73.7895 31.153 73.6686 31.153 73.5088 31.153C73.5231 30.903 73.5006 30.6776 73.8326 30.6776C74.5211 30.6776 75.2116 30.6776 75.9083 30.6776C75.84 30.9877 75.6788 31.1462 75.4247 31.153C75.2874 31.1571 75.1501 31.153 74.9657 31.153V33.323Z" fill="#FFFBF0"/>
<path d="M96.3073 32.1099C96.3073 31.655 96.3073 31.2924 96.3073 30.9276C96.3073 30.7616 96.3626 30.6756 96.5491 30.6735C96.7376 30.6735 96.8421 30.7186 96.8401 30.9317C96.8339 31.4706 96.8339 32.0075 96.8401 32.5464C96.8442 32.9214 96.8524 32.9234 97.213 32.9357C97.3687 32.9419 97.5245 32.9378 97.6822 32.9357C97.8195 32.9357 97.9117 32.9665 97.9158 33.1365C97.9199 33.3148 97.8523 33.3968 97.674 33.3804C97.6577 33.3804 97.6392 33.3804 97.6228 33.3804C97.1946 33.3456 96.7601 33.4521 96.338 33.321C96.2704 32.8886 96.3319 32.4562 96.3093 32.112L96.3073 32.1099Z" fill="#FFFBF0"/>
<path d="M73.4248 33.3742C72.8962 33.3742 72.3819 33.3742 71.8696 33.3742C71.7343 33.3742 71.6934 33.2882 71.6934 33.1734C71.6934 32.4091 71.6934 31.6448 71.6934 30.8805C71.6934 30.6735 71.8286 30.6797 71.9741 30.6756C72.1421 30.6715 72.2343 30.7247 72.2343 30.9092C72.2302 31.3087 72.2343 31.7083 72.2343 32.1079C72.2343 32.1591 72.2343 32.2124 72.2343 32.2636C72.2343 32.7049 72.4529 32.9282 72.89 32.9337C73.1551 32.9364 73.334 33.0833 73.4269 33.3742H73.4248Z" fill="#FFFBF0"/>
<defs>
<clipPath id="clip0_180009_15581">
<rect width="28" height="28" fill="white" transform="translate(16.4438 10)"/>
</clipPath>
</defs>
</svg>
