<svg width="20" height="20" viewBox="0 0 20 20" fill="none" xmlns="http://www.w3.org/2000/svg">
<path d="M7.67892 8.43817H18.3932C18.4914 8.43817 18.5718 8.35781 18.5718 8.2596V7.0096C18.5718 6.91138 18.4914 6.83102 18.3932 6.83102H7.67892C7.58071 6.83102 7.50035 6.91138 7.50035 7.0096V8.2596C7.50035 8.35781 7.58071 8.43817 7.67892 8.43817ZM7.50035 12.9917C7.50035 13.09 7.58071 13.1703 7.67892 13.1703H18.3932C18.4914 13.1703 18.5718 13.09 18.5718 12.9917V11.7417C18.5718 11.6435 18.4914 11.5632 18.3932 11.5632H7.67892C7.58071 11.5632 7.50035 11.6435 7.50035 11.7417V12.9917ZM18.7504 2.14352H1.25035C1.15213 2.14352 1.07178 2.22388 1.07178 2.3221V3.5721C1.07178 3.67031 1.15213 3.75067 1.25035 3.75067H18.7504C18.8486 3.75067 18.9289 3.67031 18.9289 3.5721V2.3221C18.9289 2.22388 18.8486 2.14352 18.7504 2.14352ZM18.7504 16.2507H1.25035C1.15213 16.2507 1.07178 16.331 1.07178 16.4292V17.6792C1.07178 17.7775 1.15213 17.8578 1.25035 17.8578H18.7504C18.8486 17.8578 18.9289 17.7775 18.9289 17.6792V16.4292C18.9289 16.331 18.8486 16.2507 18.7504 16.2507ZM1.14767 10.1547L4.63651 12.9025C4.76597 13.0051 4.95794 12.9136 4.95794 12.7484V7.2529C4.95794 7.08772 4.76821 6.9962 4.63651 7.09888L1.14767 9.84665C1.12421 9.86489 1.10523 9.88825 1.09217 9.91494C1.07911 9.94163 1.07232 9.97095 1.07232 10.0007C1.07232 10.0304 1.07911 10.0597 1.09217 10.0864C1.10523 10.1131 1.12421 10.1364 1.14767 10.1547Z" fill="white"/>
</svg>
